<mxfile host="app.diagrams.net" modified="2022-09-11T09:44:03.254Z" agent="5.0 (Windows NT 10.0; Win64; x64) AppleWebKit/537.36 (KHTML, like Gecko) Chrome/104.0.5112.102 Safari/537.36 OPR/90.0.4480.78" etag="pwKdMcIbedFZIzZ0Pg0m" version="20.3.0" type="github" pages="2">
  <diagram id="s2KIgO2PvSNq3SzGP1Op" name="Page-1">
    <mxGraphModel dx="997" dy="548" grid="1" gridSize="10" guides="1" tooltips="1" connect="1" arrows="1" fold="1" page="1" pageScale="1" pageWidth="850" pageHeight="1100" math="0" shadow="0">
      <root>
        <mxCell id="0" />
        <mxCell id="1" parent="0" />
        <mxCell id="Gq5N5_ihpk3a6jA_Wd6o-12" style="edgeStyle=orthogonalEdgeStyle;rounded=0;orthogonalLoop=1;jettySize=auto;html=1;exitX=0.25;exitY=1;exitDx=0;exitDy=0;entryX=0.5;entryY=0;entryDx=0;entryDy=0;" parent="1" source="Gq5N5_ihpk3a6jA_Wd6o-1" target="Gq5N5_ihpk3a6jA_Wd6o-2" edge="1">
          <mxGeometry relative="1" as="geometry">
            <Array as="points">
              <mxPoint x="435" y="100" />
              <mxPoint x="435" y="140" />
              <mxPoint x="280" y="140" />
            </Array>
          </mxGeometry>
        </mxCell>
        <mxCell id="Gq5N5_ihpk3a6jA_Wd6o-13" style="edgeStyle=orthogonalEdgeStyle;rounded=0;orthogonalLoop=1;jettySize=auto;html=1;exitX=0.75;exitY=1;exitDx=0;exitDy=0;entryX=0.5;entryY=0;entryDx=0;entryDy=0;" parent="1" source="Gq5N5_ihpk3a6jA_Wd6o-1" target="Gq5N5_ihpk3a6jA_Wd6o-3" edge="1">
          <mxGeometry relative="1" as="geometry">
            <Array as="points">
              <mxPoint x="435" y="100" />
              <mxPoint x="435" y="140" />
              <mxPoint x="630" y="140" />
            </Array>
          </mxGeometry>
        </mxCell>
        <mxCell id="Gq5N5_ihpk3a6jA_Wd6o-1" value="Thẻ thanh toán siêu thị" style="rounded=0;whiteSpace=wrap;html=1;" parent="1" vertex="1">
          <mxGeometry x="360" y="40" width="150" height="60" as="geometry" />
        </mxCell>
        <mxCell id="Gq5N5_ihpk3a6jA_Wd6o-17" style="edgeStyle=orthogonalEdgeStyle;rounded=0;orthogonalLoop=1;jettySize=auto;html=1;exitX=0;exitY=0.5;exitDx=0;exitDy=0;entryX=0;entryY=0.5;entryDx=0;entryDy=0;" parent="1" source="Gq5N5_ihpk3a6jA_Wd6o-2" target="Gq5N5_ihpk3a6jA_Wd6o-18" edge="1">
          <mxGeometry relative="1" as="geometry">
            <Array as="points">
              <mxPoint x="200" y="210" />
              <mxPoint x="200" y="410" />
            </Array>
          </mxGeometry>
        </mxCell>
        <mxCell id="Gq5N5_ihpk3a6jA_Wd6o-20" style="edgeStyle=orthogonalEdgeStyle;rounded=0;orthogonalLoop=1;jettySize=auto;html=1;entryX=0;entryY=0.5;entryDx=0;entryDy=0;" parent="1" source="Gq5N5_ihpk3a6jA_Wd6o-2" target="Gq5N5_ihpk3a6jA_Wd6o-14" edge="1">
          <mxGeometry relative="1" as="geometry">
            <Array as="points">
              <mxPoint x="200" y="210" />
              <mxPoint x="200" y="300" />
            </Array>
          </mxGeometry>
        </mxCell>
        <mxCell id="Gq5N5_ihpk3a6jA_Wd6o-2" value="Quản lí thẻ" style="rounded=0;whiteSpace=wrap;html=1;" parent="1" vertex="1">
          <mxGeometry x="220" y="180" width="120" height="60" as="geometry" />
        </mxCell>
        <mxCell id="Gq5N5_ihpk3a6jA_Wd6o-22" style="edgeStyle=orthogonalEdgeStyle;rounded=0;orthogonalLoop=1;jettySize=auto;html=1;exitX=0;exitY=0.5;exitDx=0;exitDy=0;entryX=0;entryY=0.5;entryDx=0;entryDy=0;" parent="1" source="Gq5N5_ihpk3a6jA_Wd6o-3" target="Gq5N5_ihpk3a6jA_Wd6o-21" edge="1">
          <mxGeometry relative="1" as="geometry" />
        </mxCell>
        <mxCell id="Gq5N5_ihpk3a6jA_Wd6o-25" style="edgeStyle=orthogonalEdgeStyle;rounded=0;orthogonalLoop=1;jettySize=auto;html=1;entryX=0;entryY=0.5;entryDx=0;entryDy=0;" parent="1" source="Gq5N5_ihpk3a6jA_Wd6o-3" target="Gq5N5_ihpk3a6jA_Wd6o-23" edge="1">
          <mxGeometry relative="1" as="geometry">
            <Array as="points">
              <mxPoint x="550" y="210" />
              <mxPoint x="550" y="410" />
            </Array>
          </mxGeometry>
        </mxCell>
        <mxCell id="Gq5N5_ihpk3a6jA_Wd6o-26" style="edgeStyle=orthogonalEdgeStyle;rounded=0;orthogonalLoop=1;jettySize=auto;html=1;entryX=0;entryY=0.5;entryDx=0;entryDy=0;" parent="1" source="Gq5N5_ihpk3a6jA_Wd6o-3" target="Gq5N5_ihpk3a6jA_Wd6o-24" edge="1">
          <mxGeometry relative="1" as="geometry">
            <Array as="points">
              <mxPoint x="550" y="210" />
              <mxPoint x="550" y="510" />
            </Array>
          </mxGeometry>
        </mxCell>
        <mxCell id="Gq5N5_ihpk3a6jA_Wd6o-3" value="Quản lý dữ liệu thẻ" style="rounded=0;whiteSpace=wrap;html=1;" parent="1" vertex="1">
          <mxGeometry x="570" y="180" width="120" height="60" as="geometry" />
        </mxCell>
        <mxCell id="Gq5N5_ihpk3a6jA_Wd6o-14" value="Khóa thẻ" style="rounded=0;whiteSpace=wrap;html=1;" parent="1" vertex="1">
          <mxGeometry x="270" y="270" width="120" height="60" as="geometry" />
        </mxCell>
        <mxCell id="Gq5N5_ihpk3a6jA_Wd6o-18" value="Mở khóa thẻ" style="rounded=0;whiteSpace=wrap;html=1;" parent="1" vertex="1">
          <mxGeometry x="270" y="380" width="120" height="60" as="geometry" />
        </mxCell>
        <mxCell id="Gq5N5_ihpk3a6jA_Wd6o-21" value="Khởi tạo thẻ" style="rounded=0;whiteSpace=wrap;html=1;" parent="1" vertex="1">
          <mxGeometry x="600" y="280" width="120" height="60" as="geometry" />
        </mxCell>
        <mxCell id="Gq5N5_ihpk3a6jA_Wd6o-23" value="Cập nhật dữ liệu" style="rounded=0;whiteSpace=wrap;html=1;" parent="1" vertex="1">
          <mxGeometry x="600" y="380" width="120" height="60" as="geometry" />
        </mxCell>
        <mxCell id="Gq5N5_ihpk3a6jA_Wd6o-24" value="Gửi dữ liệu lên Applet" style="rounded=0;whiteSpace=wrap;html=1;" parent="1" vertex="1">
          <mxGeometry x="600" y="480" width="120" height="60" as="geometry" />
        </mxCell>
      </root>
    </mxGraphModel>
  </diagram>
  <diagram id="UxgXBTuW9lzwMIfWz5Eo" name="Page-2">
    <mxGraphModel dx="997" dy="548" grid="1" gridSize="10" guides="1" tooltips="1" connect="1" arrows="1" fold="1" page="1" pageScale="1" pageWidth="850" pageHeight="1100" math="0" shadow="0">
      <root>
        <mxCell id="0" />
        <mxCell id="1" parent="0" />
        <mxCell id="IsuUf2nJKKr1LJE2aQE9-7" style="edgeStyle=orthogonalEdgeStyle;rounded=0;orthogonalLoop=1;jettySize=auto;html=1;exitX=1;exitY=0.5;exitDx=0;exitDy=0;exitPerimeter=0;" edge="1" parent="1" source="IsuUf2nJKKr1LJE2aQE9-2">
          <mxGeometry relative="1" as="geometry">
            <mxPoint x="590" y="200" as="targetPoint" />
          </mxGeometry>
        </mxCell>
        <mxCell id="IsuUf2nJKKr1LJE2aQE9-11" value="False &amp;gt; 3" style="edgeLabel;html=1;align=center;verticalAlign=middle;resizable=0;points=[];fontSize=14;" vertex="1" connectable="0" parent="IsuUf2nJKKr1LJE2aQE9-7">
          <mxGeometry x="-0.2" y="4" relative="1" as="geometry">
            <mxPoint y="-16" as="offset" />
          </mxGeometry>
        </mxCell>
        <mxCell id="IsuUf2nJKKr1LJE2aQE9-13" value="" style="edgeStyle=orthogonalEdgeStyle;rounded=0;orthogonalLoop=1;jettySize=auto;html=1;fontSize=14;" edge="1" parent="1" source="IsuUf2nJKKr1LJE2aQE9-2" target="IsuUf2nJKKr1LJE2aQE9-12">
          <mxGeometry relative="1" as="geometry" />
        </mxCell>
        <mxCell id="IsuUf2nJKKr1LJE2aQE9-2" value="&lt;font style=&quot;font-size: 14px;&quot;&gt;Nhập mã PIN&lt;/font&gt;" style="strokeWidth=2;html=1;shape=mxgraph.flowchart.decision;whiteSpace=wrap;" vertex="1" parent="1">
          <mxGeometry x="310" y="150" width="160" height="100" as="geometry" />
        </mxCell>
        <mxCell id="IsuUf2nJKKr1LJE2aQE9-6" style="edgeStyle=orthogonalEdgeStyle;rounded=0;orthogonalLoop=1;jettySize=auto;html=1;entryX=0.5;entryY=0;entryDx=0;entryDy=0;entryPerimeter=0;" edge="1" parent="1" source="IsuUf2nJKKr1LJE2aQE9-3" target="IsuUf2nJKKr1LJE2aQE9-2">
          <mxGeometry relative="1" as="geometry" />
        </mxCell>
        <mxCell id="IsuUf2nJKKr1LJE2aQE9-3" value="" style="ellipse;whiteSpace=wrap;html=1;aspect=fixed;strokeWidth=1;fillColor=#000000;" vertex="1" parent="1">
          <mxGeometry x="380" y="70" width="20" height="20" as="geometry" />
        </mxCell>
        <mxCell id="IsuUf2nJKKr1LJE2aQE9-8" value="&lt;font style=&quot;font-size: 14px;&quot;&gt;Khóa thẻ&lt;/font&gt;" style="rounded=0;whiteSpace=wrap;html=1;strokeColor=#000000;strokeWidth=2;fillColor=default;" vertex="1" parent="1">
          <mxGeometry x="590" y="170" width="120" height="70" as="geometry" />
        </mxCell>
        <mxCell id="IsuUf2nJKKr1LJE2aQE9-15" value="" style="edgeStyle=orthogonalEdgeStyle;rounded=0;orthogonalLoop=1;jettySize=auto;html=1;fontSize=14;" edge="1" parent="1" source="IsuUf2nJKKr1LJE2aQE9-12">
          <mxGeometry relative="1" as="geometry">
            <mxPoint x="390" y="426" as="targetPoint" />
          </mxGeometry>
        </mxCell>
        <mxCell id="IsuUf2nJKKr1LJE2aQE9-12" value="Hiển thị giao diện Home/ Khởi tạo thẻ" style="whiteSpace=wrap;html=1;strokeWidth=2;fontSize=14;" vertex="1" parent="1">
          <mxGeometry x="330" y="310" width="120" height="60" as="geometry" />
        </mxCell>
        <mxCell id="IsuUf2nJKKr1LJE2aQE9-17" value="" style="ellipse;html=1;shape=endState;shadow=0;sketch=0;strokeWidth=1;fontSize=14;dropTarget=0;fillColor=#000000;" vertex="1" parent="1">
          <mxGeometry x="375" y="430" width="30" height="30" as="geometry" />
        </mxCell>
      </root>
    </mxGraphModel>
  </diagram>
</mxfile>
